<?xml version="1.0" encoding="utf-8"?>
<!-- Generator: Adobe Illustrator 19.2.0, SVG Export Plug-In . SVG Version: 6.00 Build 0)  -->
<svg version="1.1" id="Layer_1" xmlns="http://www.w3.org/2000/svg" xmlns:xlink="http://www.w3.org/1999/xlink" x="0px" y="0px"
	 viewBox="0 0 300 300" style="enable-background:new 0 0 300 300;" xml:space="preserve">
<style type="text/css">
	.st0{fill:#FFFFFF;}
	.st1{fill:#00B8D6;}
	.st2{fill:#7EFFFF;}
	.st3{fill:#00E4FF;}
</style>
<g>
	<circle class="st0" cx="150" cy="150" r="149"/>
	<polygon class="st1" points="150,266.7 120.1,242.2 81.4,244.4 71.6,206.9 39,186.1 53.1,150 39,113.9 71.6,93.1 81.4,55.6 
		120.1,57.8 150,33.3 179.9,57.8 218.6,55.6 228.4,93.1 261,113.9 246.9,150 261,186.1 228.4,206.9 218.6,244.4 179.9,242.2 	"/>
	<path class="st2" d="M150,229.1c-43.6,0-79.1-35.5-79.1-79.1s35.5-79.1,79.1-79.1s79.1,35.5,79.1,79.1S193.6,229.1,150,229.1z"/>
	<circle class="st3" cx="150" cy="150" r="59.3"/>
	<path class="st0" d="M186.9,135.7h-22.3c-1.8,0-3.3-1.1-3.9-2.8l-6.9-21.2c-1.2-3.7-6.5-3.7-7.7,0l-6.9,21.2
		c-0.5,1.7-2.1,2.8-3.9,2.8h-22.3c-3.9,0-5.6,5-2.4,7.4l18,13.1c1.4,1,2,2.9,1.5,4.5l-6.9,21.2c-1.2,3.7,3.1,6.9,6.3,4.5l18-13.1
		c1.4-1,3.4-1,4.8,0l18,13.1c3.2,2.3,7.5-0.8,6.3-4.5l-6.9-21.2c-0.5-1.7,0.1-3.5,1.5-4.5l18-13.1
		C192.5,140.7,190.8,135.7,186.9,135.7z"/>
</g>
</svg>
